:SAMPLES-PER-SECOND 30
:FULLY-SPECIFIED
:DEGREES
107
root  -33.7043 38.8434 -28.2668 33.9579 -78.3624 -31.0114
RightUpLeg  -28.8317 -2.74558 0.430256
RightLeg  44.996 8.25321 8.46558
RightFoot  -7.67243 -0.512549 14.1913
RightToes  0.00048216 0.542163 -0.142577
Spine  54.788 -3.78867 4.88087
Spine1  5.95979 -0.0189135 -4.32939
HEad  -41.0745 28.5565 -36.2053
LeftShoulder1  9.99478 -17.9654 -40.2617
LeftArm  -22.4326 2.46724 -25.2019
LeftForeArm  22.312 -72.2844 -36.6272
LeftHand  -0.25398 0.0180481 5.50724
RightShoulder  5.40886 11.4134 30.2952
RightArm  -16.4705 1.60026 26.1871
RightForeArm  17.1589 77.1542 70.7053
RightHand  0.682053 -14.2884 -9.83553
LeftUpLeg  -31.0154 21.4494 -4.93338
LeftLeg  11.3719 5.83541 -5.41437
LeftFoot  12.9816 -3.60549 16.2451
LeftToes  1.06248e-005 4.65855e-005 -8.185e-006
108
root  -33.185 38.6946 -28.6349 24.6655 -76.5945 -24.6387
RightUpLeg  -24.1029 -0.744069 0.804994
RightLeg  49.0868 10.507 12.3668
RightFoot  -8.66733 -0.452224 16.8745
RightToes  0.00048216 0.542163 -0.142577
Spine  52.7458 -3.73852 5.17935
Spine1  5.87307 0.208937 -4.77835
HEad  -41.089 32.4635 -38.4932
LeftShoulder1  10.1569 -17.4028 -42.1747
LeftArm  -21.608 8.0613 -24.1056
LeftForeArm  27.8792 -74.3345 -42.8893
LeftHand  -0.25398 0.0180481 5.50724
RightShoulder  5.45713 11.0986 31.4199
RightArm  -14.6818 -1.83253 26.3164
RightForeArm  24.624 77.6125 78.7699
RightHand  0.836573 -15.8359 -10.1516
LeftUpLeg  -27.7239 18.2577 -2.93302
LeftLeg  10.311 7.29434 -6.36145
LeftFoot  14.2665 -3.62707 15.4655
LeftToes  1.06248e-005 4.65855e-005 -8.185e-006
109
root  -32.6611 38.6006 -29.003 16.8109 -73.8876 -19.4275
RightUpLeg  -18.3511 -1.00257 2.21535
RightLeg  49.2494 10.743 12.7556
RightFoot  -10.3763 -0.205782 13.2409
RightToes  0.00048216 0.542163 -0.142577
Spine  50.572 -3.86612 6.21303
Spine1  5.75424 0.265234 -4.61322
HEad  -40.345 36.4253 -40.372
LeftShoulder1  10.4009 -16.8335 -44.539
LeftArm  -20.7906 12.8719 -22.212
LeftForeArm  35.0002 -76.1276 -50.7425
LeftHand  -0.25398 0.0180481 5.50724
RightShoulder  5.48284 10.9454 31.9992
RightArm  -13.2675 -5.18394 26.358
RightForeArm  31.5493 77.8054 86.2724
RightHand  0.971271 -17.5192 -10.0817
LeftUpLeg  -24.6603 15.9875 -2.14561
LeftLeg  8.39274 6.65928 -7.36852
LeftFoot  16.2421 -3.75634 14.8066
LeftToes  1.06248e-005 4.65855e-005 -8.185e-006
110
root  -32.1145 38.5496 -29.3728 11.0168 -69.9436 -15.9497
RightUpLeg  -12.1426 -3.94672 3.95695
RightLeg  44.9564 8.85935 9.12866
RightFoot  -15.032 0.0291764 4.70036
RightToes  0.00048216 0.542163 -0.142577
Spine  47.852 -4.31844 8.25367
Spine1  5.94893 0.179057 -4.09347
HEad  -39.0977 39.9673 -41.7225
LeftShoulder1  10.4921 -16.3936 -45.981
LeftArm  -20.3566 16.6232 -21.2047
LeftForeArm  44.4366 -77.5879 -60.3056
LeftHand  -0.25398 0.0180481 5.50724
RightShoulder  5.3874 10.6738 32.0541
RightArm  -12.0954 -8.00079 26.3518
RightForeArm  37.0041 77.7943 92.6729
RightHand  1.09383 -18.5273 -10.4009
LeftUpLeg  -21.7363 13.7287 -1.68573
LeftLeg  5.80054 4.9285 -8.29158
LeftFoot  18.3787 -3.12395 11.3308
LeftToes  1.06248e-005 4.65855e-005 -8.185e-006
111
root  -31.48 38.4878 -29.7528 6.54937 -65.3319 -13.1529
RightUpLeg  -7.55728 -8.09366 4.90359
RightLeg  39.0692 5.34808 4.35434
RightFoot  -20.1329 -0.264185 -1.93766
RightToes  0.00048216 0.542163 -0.142577
Spine  44.6179 -4.75268 10.6864
Spine1  6.67085 0.402495 -4.21173
HEad  -38.1841 42.4905 -43.0036
LeftShoulder1  10.3899 -16.2448 -45.8752
LeftArm  -20.176 19.0652 -21.8493
LeftForeArm  55.9729 -78.6205 -71.2043
LeftHand  -0.25398 0.0180481 5.50724
RightShoulder  5.20196 10.2094 31.9901
RightArm  -11.2157 -10.2161 25.8733
RightForeArm  40.9856 77.6301 98.5303
RightHand  1.25516 -18.9322 -11.4268
LeftUpLeg  -19.4506 10.4032 -0.96496
LeftLeg  3.05956 3.86523 -9.09406
LeftFoot  19.677 -0.435776 1.13561
LeftToes  1.06248e-005 4.65855e-005 -8.185e-006
112
root  -30.7703 38.473 -30.069 4.02171 -60.9755 -11.5366
RightUpLeg  -5.9419 -11.8494 5.05426
RightLeg  35.5438 2.57158 1.67884
RightFoot  -21.8199 -0.511108 -4.02131
RightToes  0.00048216 0.542163 -0.142577
Spine  41.2003 -4.86648 13.5125
Spine1  7.67892 1.15528 -4.97422
HEad  -38.2891 44.2036 -45.0568
LeftShoulder1  10.2773 -16.1859 -45.5013
LeftArm  -19.842 19.9374 -22.8075
LeftForeArm  66.3336 -79.1163 -80.785
LeftHand  -0.25398 0.0180481 5.50724
RightShoulder  5.04675 9.83319 31.8967
RightArm  -10.7732 -12.0402 24.9052
RightForeArm  43.8047 77.3675 103.644
RightHand  1.41236 -19.6051 -12.1437
LeftUpLeg  -17.7737 7.49879 0.136085
LeftLeg  0.162983 3.23007 -9.84173
LeftFoot  19.4145 3.94941 -14.7873
LeftToes  1.06248e-005 4.65855e-005 -8.185e-006
113
root  -30.0542 38.591 -30.2883 2.52589 -56.9609 -10.4253
RightUpLeg  -6.08797 -15.2648 4.48817
RightLeg  34.4397 1.78053 1.04418
RightFoot  -20.5069 -0.439731 -3.73358
RightToes  0.00048216 0.542163 -0.142577
Spine  37.9907 -4.58192 16.1393
Spine1  8.3196 2.06048 -5.7496
HEad  -38.7023 45.9821 -47.5893
LeftShoulder1  10.261 -15.99 -45.901
LeftArm  -19.4471 19.7684 -23.0846
LeftForeArm  72.072 -79.2545 -85.8836
LeftHand  -0.25398 0.0180481 5.50724
RightShoulder  4.98749 9.73705 31.7233
RightArm  -10.6776 -13.6846 24.0004
RightForeArm  45.3256 77.168 106.561
RightHand  1.44681 -20.6065 -11.6447
LeftUpLeg  -16.6532 6.98477 0.677803
LeftLeg  -1.39165 1.79078 -10.3844
LeftFoot  17.1769 7.1106 -27.9604
LeftToes  1.06248e-005 4.65855e-005 -8.185e-006
